<svg xmlns="http://www.w3.org/2000/svg" xmlns:xlink="http://www.w3.org/1999/xlink" contentStyleType="text/css" height="316px" preserveAspectRatio="none" style="width:585px;height:316px;background:#FFFFFF;" version="1.1" viewBox="0 0 585 316" width="585px" zoomAndPan="magnify"><defs/><g><!--class Interferencia--><g id="elem_Interferencia"><rect codeLine="1" fill="#F1F1F1" height="113.1875" id="Interferencia" rx="2.5" ry="2.5" style="stroke:#181818;stroke-width:0.5;" width="184" x="7" y="7"/><ellipse cx="51.75" cy="23" fill="#ADD1B2" rx="11" ry="11" style="stroke:#181818;stroke-width:1.0;"/><path d="M54.7188,28.6406 Q54.1406,28.9375 53.5,29.0781 Q52.8594,29.2344 52.1563,29.2344 Q49.6563,29.2344 48.3281,27.5938 Q47.0156,25.9375 47.0156,22.8125 Q47.0156,19.6875 48.3281,18.0313 Q49.6563,16.375 52.1563,16.375 Q52.8594,16.375 53.5,16.5313 Q54.1563,16.6875 54.7188,16.9844 L54.7188,19.7031 Q54.0938,19.125 53.5,18.8594 Q52.9063,18.5781 52.2813,18.5781 Q50.9375,18.5781 50.25,19.6563 Q49.5625,20.7188 49.5625,22.8125 Q49.5625,24.9063 50.25,25.9844 Q50.9375,27.0469 52.2813,27.0469 Q52.9063,27.0469 53.5,26.7813 Q54.0938,26.5 54.7188,25.9219 L54.7188,28.6406 Z " fill="#000000"/><text fill="#000000" font-family="sans-serif" font-size="14" lengthAdjust="spacing" textLength="86" x="72.25" y="27.8467">Interferencia</text><line style="stroke:#181818;stroke-width:0.5;" x1="8" x2="190" y1="39" y2="39"/><text fill="#000000" font-family="sans-serif" font-size="14" lengthAdjust="spacing" textLength="82" x="13" y="55.9951">interId:Long</text><text fill="#000000" font-family="sans-serif" font-size="14" lengthAdjust="spacing" textLength="141" x="13" y="72.292">interLatitude:Double</text><text fill="#000000" font-family="sans-serif" font-size="14" lengthAdjust="spacing" textLength="155" x="13" y="88.5889">interLongitude:Double</text><text fill="#000000" font-family="sans-serif" font-size="14" lengthAdjust="spacing" textLength="172" x="13" y="104.8857">interGeometry:Geometry</text><line style="stroke:#181818;stroke-width:0.5;" x1="8" x2="190" y1="112.1875" y2="112.1875"/></g><!--class Subterranea--><g id="elem_Subterranea"><rect codeLine="7" fill="#F1F1F1" height="64.2969" id="Subterranea" rx="2.5" ry="2.5" style="stroke:#181818;stroke-width:0.5;" width="125" x="36.5" y="212.78"/><ellipse cx="55.1" cy="228.78" fill="#ADD1B2" rx="11" ry="11" style="stroke:#181818;stroke-width:1.0;"/><path d="M58.0688,234.4206 Q57.4906,234.7175 56.85,234.8581 Q56.2094,235.0144 55.5063,235.0144 Q53.0063,235.0144 51.6781,233.3738 Q50.3656,231.7175 50.3656,228.5925 Q50.3656,225.4675 51.6781,223.8113 Q53.0063,222.155 55.5063,222.155 Q56.2094,222.155 56.85,222.3113 Q57.5063,222.4675 58.0688,222.7644 L58.0688,225.4831 Q57.4438,224.905 56.85,224.6394 Q56.2563,224.3581 55.6313,224.3581 Q54.2875,224.3581 53.6,225.4363 Q52.9125,226.4988 52.9125,228.5925 Q52.9125,230.6863 53.6,231.7644 Q54.2875,232.8269 55.6313,232.8269 Q56.2563,232.8269 56.85,232.5613 Q57.4438,232.28 58.0688,231.7019 L58.0688,234.4206 Z " fill="#000000"/><text fill="#000000" font-family="sans-serif" font-size="14" lengthAdjust="spacing" textLength="85" x="69.9" y="233.6267">Subterranea</text><line style="stroke:#181818;stroke-width:0.5;" x1="37.5" x2="160.5" y1="244.78" y2="244.78"/><text fill="#000000" font-family="sans-serif" font-size="14" lengthAdjust="spacing" textLength="113" x="42.5" y="261.7751">subVazao:String</text><line style="stroke:#181818;stroke-width:0.5;" x1="37.5" x2="160.5" y1="269.0769" y2="269.0769"/></g><!--class Finalidade--><g id="elem_Finalidade"><rect codeLine="10" fill="#F1F1F1" height="64.2969" id="Finalidade" rx="2.5" ry="2.5" style="stroke:#181818;stroke-width:0.5;" width="101" x="337.5" y="31.44"/><ellipse cx="352.5" cy="47.44" fill="#ADD1B2" rx="11" ry="11" style="stroke:#181818;stroke-width:1.0;"/><path d="M355.4688,53.0806 Q354.8906,53.3775 354.25,53.5181 Q353.6094,53.6744 352.9063,53.6744 Q350.4063,53.6744 349.0781,52.0338 Q347.7656,50.3775 347.7656,47.2525 Q347.7656,44.1275 349.0781,42.4713 Q350.4063,40.815 352.9063,40.815 Q353.6094,40.815 354.25,40.9713 Q354.9063,41.1275 355.4688,41.4244 L355.4688,44.1431 Q354.8438,43.565 354.25,43.2994 Q353.6563,43.0181 353.0313,43.0181 Q351.6875,43.0181 351,44.0963 Q350.3125,45.1588 350.3125,47.2525 Q350.3125,49.3463 351,50.4244 Q351.6875,51.4869 353.0313,51.4869 Q353.6563,51.4869 354.25,51.2213 Q354.8438,50.94 355.4688,50.3619 L355.4688,53.0806 Z " fill="#000000"/><text fill="#000000" font-family="sans-serif" font-size="14" lengthAdjust="spacing" textLength="69" x="366.5" y="52.2867">Finalidade</text><line style="stroke:#181818;stroke-width:0.5;" x1="338.5" x2="437.5" y1="63.44" y2="63.44"/><text fill="#000000" font-family="sans-serif" font-size="14" lengthAdjust="spacing" textLength="67" x="343.5" y="80.4351">finId:Long</text><line style="stroke:#181818;stroke-width:0.5;" x1="338.5" x2="437.5" y1="87.7369" y2="87.7369"/></g><!--class FinalidadeAutorizada--><g id="elem_FinalidadeAutorizada"><rect codeLine="13" fill="#F1F1F1" height="129.4844" id="FinalidadeAutorizada" rx="2.5" ry="2.5" style="stroke:#181818;stroke-width:0.5;" width="174" x="197" y="180.19"/><ellipse cx="212" cy="196.19" fill="#ADD1B2" rx="11" ry="11" style="stroke:#181818;stroke-width:1.0;"/><path d="M214.9688,201.8306 Q214.3906,202.1275 213.75,202.2681 Q213.1094,202.4244 212.4063,202.4244 Q209.9063,202.4244 208.5781,200.7838 Q207.2656,199.1275 207.2656,196.0025 Q207.2656,192.8775 208.5781,191.2213 Q209.9063,189.565 212.4063,189.565 Q213.1094,189.565 213.75,189.7213 Q214.4063,189.8775 214.9688,190.1744 L214.9688,192.8931 Q214.3438,192.315 213.75,192.0494 Q213.1563,191.7681 212.5313,191.7681 Q211.1875,191.7681 210.5,192.8463 Q209.8125,193.9088 209.8125,196.0025 Q209.8125,198.0963 210.5,199.1744 Q211.1875,200.2369 212.5313,200.2369 Q213.1563,200.2369 213.75,199.9713 Q214.3438,199.69 214.9688,199.1119 L214.9688,201.8306 Z " fill="#000000"/><text fill="#000000" font-family="sans-serif" font-size="14" lengthAdjust="spacing" textLength="142" x="226" y="201.0367">FinalidadeAutorizada</text><line style="stroke:#181818;stroke-width:0.5;" x1="198" x2="370" y1="212.19" y2="212.19"/><text fill="#000000" font-family="sans-serif" font-size="14" lengthAdjust="spacing" textLength="67" x="203" y="229.1851">finId:Long</text><text fill="#000000" font-family="sans-serif" font-size="14" lengthAdjust="spacing" textLength="130" x="203" y="245.482">finFinalidade:String</text><text fill="#000000" font-family="sans-serif" font-size="14" lengthAdjust="spacing" textLength="153" x="203" y="261.7789">finSubfinalidade:String</text><text fill="#000000" font-family="sans-serif" font-size="14" lengthAdjust="spacing" textLength="151" x="203" y="278.0757">finQuantidade:Double</text><text fill="#000000" font-family="sans-serif" font-size="14" lengthAdjust="spacing" textLength="138" x="203" y="294.3726">finConsumo:Double</text><line style="stroke:#181818;stroke-width:0.5;" x1="198" x2="370" y1="301.6744" y2="301.6744"/></g><!--class FinalidadeRequerida--><g id="elem_FinalidadeRequerida"><rect codeLine="20" fill="#F1F1F1" height="129.4844" id="FinalidadeRequerida" rx="2.5" ry="2.5" style="stroke:#181818;stroke-width:0.5;" width="172" x="406" y="180.19"/><ellipse cx="421" cy="196.19" fill="#ADD1B2" rx="11" ry="11" style="stroke:#181818;stroke-width:1.0;"/><path d="M423.9688,201.8306 Q423.3906,202.1275 422.75,202.2681 Q422.1094,202.4244 421.4063,202.4244 Q418.9063,202.4244 417.5781,200.7838 Q416.2656,199.1275 416.2656,196.0025 Q416.2656,192.8775 417.5781,191.2213 Q418.9063,189.565 421.4063,189.565 Q422.1094,189.565 422.75,189.7213 Q423.4063,189.8775 423.9688,190.1744 L423.9688,192.8931 Q423.3438,192.315 422.75,192.0494 Q422.1563,191.7681 421.5313,191.7681 Q420.1875,191.7681 419.5,192.8463 Q418.8125,193.9088 418.8125,196.0025 Q418.8125,198.0963 419.5,199.1744 Q420.1875,200.2369 421.5313,200.2369 Q422.1563,200.2369 422.75,199.9713 Q423.3438,199.69 423.9688,199.1119 L423.9688,201.8306 Z " fill="#000000"/><text fill="#000000" font-family="sans-serif" font-size="14" lengthAdjust="spacing" textLength="140" x="435" y="201.0367">FinalidadeRequerida</text><line style="stroke:#181818;stroke-width:0.5;" x1="407" x2="577" y1="212.19" y2="212.19"/><text fill="#000000" font-family="sans-serif" font-size="14" lengthAdjust="spacing" textLength="67" x="412" y="229.1851">finId:Long</text><text fill="#000000" font-family="sans-serif" font-size="14" lengthAdjust="spacing" textLength="130" x="412" y="245.482">finFinalidade:String</text><text fill="#000000" font-family="sans-serif" font-size="14" lengthAdjust="spacing" textLength="153" x="412" y="261.7789">finSubfinalidade:String</text><text fill="#000000" font-family="sans-serif" font-size="14" lengthAdjust="spacing" textLength="151" x="412" y="278.0757">finQuantidade:Double</text><text fill="#000000" font-family="sans-serif" font-size="14" lengthAdjust="spacing" textLength="138" x="412" y="294.3726">finConsumo:Double</text><line style="stroke:#181818;stroke-width:0.5;" x1="407" x2="577" y1="301.6744" y2="301.6744"/></g><!--reverse link Interferencia to Subterranea--><g id="link_Interferencia_Subterranea"><path d="M99,138.35 C99,168.68 99,187.09 99,212.5 " fill="none" id="Interferencia-backto-Subterranea" style="stroke:#181818;stroke-width:1.0;"/><polygon fill="none" points="99,120.35,93,138.35,105,138.35,99,120.35" style="stroke:#181818;stroke-width:1.0;"/></g><!--reverse link Finalidade to FinalidadeAutorizada--><g id="link_Finalidade_FinalidadeAutorizada"><path d="M360.8513,111.4018 C347.4113,134.5818 337.65,151.42 321.06,180.01 " fill="none" id="Finalidade-backto-FinalidadeAutorizada" style="stroke:#181818;stroke-width:1.0;"/><polygon fill="none" points="369.88,95.83,355.6607,108.3923,366.0419,114.4114,369.88,95.83" style="stroke:#181818;stroke-width:1.0;"/></g><!--reverse link Finalidade to FinalidadeRequerida--><g id="link_Finalidade_FinalidadeRequerida"><path d="M415.1487,111.4018 C428.5887,134.5818 438.35,151.42 454.94,180.01 " fill="none" id="Finalidade-backto-FinalidadeRequerida" style="stroke:#181818;stroke-width:1.0;"/><polygon fill="none" points="406.12,95.83,409.9581,114.4114,420.3393,108.3923,406.12,95.83" style="stroke:#181818;stroke-width:1.0;"/></g><!--SRC=[nOz12y8m38Nl-nNz7Rs9eWnsqO7tRCqaC5DiKz29_ztMhUnGFNlB-rx2U-b7y5xLBEW6TCWzWNfMb7HjT6FvCei6X2GOr3iRkX4N6EsI7j1UKTn3vw5wLVqdfWrTz1qmWiAx89ioseVk31DOtOgZc9vlzyGmaW63SKaDnBbUkR09OXrDODQKdzTfNiqSccWiEtmrZW5OPhgydUZMiWzNcr7PweItW8x-MkeD]--></g></svg>